Coordinates
version=1
nRows=16
nColumns=36
inDegrees=yes

Units are S.I. units (second, meters, Newtons, ...)
If the header above contains a line with 'inDegrees', this indicates whether rotational values are in degrees (yes) or radians (no).

endheader
time	pelvis_tilt	pelvis_list	pelvis_rotation	pelvis_tx	pelvis_ty	pelvis_tz	hip_flexion_r	hip_adduction_r	hip_rotation_r	knee_angle_r	knee_angle_r_beta	ankle_angle_r	subtalar_angle_r	mtp_angle_r	hip_flexion_l	hip_adduction_l	hip_rotation_l	knee_angle_l	knee_angle_l_beta	ankle_angle_l	subtalar_angle_l	mtp_angle_l	lumbar_extension	lumbar_bending	lumbar_rotation	arm_flex_r	arm_add_r	arm_rot_r	elbow_flex_r	pro_sup_r	arm_flex_l	arm_add_l	arm_rot_l	elbow_flex_l	pro_sup_l
      2.86666670	    -30.88698077	      2.47836837	     -5.31163207	      0.81997839	      0.72144882	      0.03182001	     78.95064596	     -5.14180841	      5.35027526	     82.66230009	      1.44272930	     33.00157668	     -5.47419192	     -7.49999987	     79.78707520	     -7.90513605	      5.96511227	     82.19413546	      1.43455829	     27.86025700	     -7.99499402	     -7.49999987	    -33.55188569	      1.11052883	      1.52975675	     48.15406443	    -19.20596671	     13.08895448	     88.06085145	     85.35475851	     49.21708804	    -21.65800846	     20.72874128	    100.77578706	     87.89263373
      2.88333330	    -29.02636597	      2.45271675	     -5.35643483	      0.83091588	      0.73028821	      0.03294646	     75.06829847	     -4.64323875	      5.62663995	     81.54521648	      1.42323252	     33.29297008	     -6.16569819	     -7.49999987	     76.02709607	     -7.45307053	      6.26849178	     81.09548103	      1.41538315	     27.85859750	     -8.61170475	     -7.49999987	    -32.83897510	      0.78262493	      1.45796921	     42.27289117	    -19.54737178	     13.59979904	     84.60378850	     83.03367887	     43.25549036	    -22.01718663	     20.95566544	     95.98878598	     85.71310802
      2.90000000	    -27.16223536	      2.36872695	     -5.61267671	      0.85602994	      0.74783480	      0.02554061	     70.32775413	     -4.17594270	      6.21976496	     79.41190003	      1.38599912	     31.98668459	     -8.74215897	     -7.49999987	     71.25344348	     -6.80882913	      6.57621599	     79.26093000	      1.38336420	     27.26401484	     -9.85625604	     -7.49999987	    -31.19983215	      0.92621919	      1.72714784	     37.13581634	    -19.05425788	     13.02456608	     76.80477066	     80.85812158	     36.96528599	    -18.78051553	     17.61284064	     85.70949273	     83.64136735
      2.91666670	    -24.90574563	      2.27755911	     -5.53648970	      0.88120744	      0.76458677	      0.03313000	     64.38133574	     -3.94812794	      6.71430933	     76.75218892	      1.33957840	     31.24680281	    -10.46405773	     -7.49999987	     65.37273041	     -6.23603907	      6.72268279	     76.64687080	      1.33774026	     26.55996923	    -10.71182603	     -7.49999987	    -29.46097077	      1.05917048	      1.38936361	     30.95578772	    -17.51710279	     11.92206887	     69.31936705	     80.40270175	     30.45951604	    -17.19235480	     15.30501347	     76.58128022	     83.86351472
      2.93333330	    -23.23186773	      2.18893415	     -5.19881454	      0.88284989	      0.78550912	      0.03269949	     59.60412022	     -3.87273264	      6.92718497	     73.61746822	      1.28486721	     29.27875957	    -12.80675128	     -7.49999987	     60.70418917	     -5.73789642	      6.65255276	     73.55673807	      1.28380727	     25.39880157	    -11.71979437	     -7.49999987	    -27.63413213	      1.06494205	      1.12373096	     27.21474348	    -16.40300221	     10.82342485	     63.37804038	     79.09593422	     26.30287844	    -16.16796466	     14.24421755	     69.65221770	     82.60537600
      2.95000000	    -21.93002692	      2.22280539	     -4.99263050	      0.88818791	      0.81121732	      0.03142381	     55.29286110	     -3.95967594	      7.02235668	     69.56669057	      1.21416780	     26.56031808	    -14.81721220	     -7.49999987	     56.30962958	     -5.43439765	      6.29176142	     69.52088760	      1.21336839	     23.44734463	    -12.83637294	     -7.49999987	    -25.66417412	      1.02711285	      1.26476997	     23.89764324	    -15.93231534	     10.91010514	     60.65005049	     77.55292397	     21.85915938	    -15.57304985	     13.20310453	     67.70118274	     80.68491274
      2.96666670	    -20.02669135	      2.09423891	     -4.99906454	      0.90022707	      0.84903005	      0.02819773	     48.99489644	     -4.31316404	      6.88156854	     62.66203919	      1.09365890	     22.58775507	    -15.98872042	     -7.49999987	     50.27765438	     -5.26032048	      5.63022051	     63.03200926	      1.10011610	     19.64554149	    -14.32801864	     -7.49999987	    -24.48241072	      1.19440608	      1.61382337	     20.24228880	    -15.99233463	     11.32269303	     59.54513442	     76.30628833	     16.76024424	    -14.76918280	     12.82890444	     66.48609790	     79.01746893
      2.98333330	    -19.10803361	      2.35591775	     -5.20677012	      0.90321639	      0.87555945	      0.01616449	     44.07288301	     -5.30751310	      6.86179094	     55.00070508	      0.95994339	     17.54241273	    -16.27771284	     -7.49999987	     45.55992628	     -4.90995113	      4.16687251	     56.02588838	      0.97783622	     15.26257115	    -15.33247215	     -7.49999987	    -22.21921094	      1.39596977	      1.69215528	     16.32748492	    -17.05873885	     12.21145202	     60.99234993	     75.59804412	     11.16392230	    -14.68711898	     12.87022684	     68.15791951	     77.87117719
      3.00000000	    -18.12596922	      2.47051164	     -5.17008891	      0.91463067	      0.89729045	      0.01898401	     39.28206410	     -6.08378119	      6.63720341	     48.04537783	      0.83855003	     12.80256013	    -16.05940774	     -7.49999987	     40.88909248	     -4.88815233	      2.35742655	     49.37477238	      0.86175235	     10.54201941	    -15.98145382	     -7.49999987	    -19.95738815	      1.27232614	      1.40965205	     11.12728236	    -18.70069661	     13.70207084	     66.85527315	     74.45900222	      3.97055372	    -16.51344562	     12.80473827	     76.78297827	     76.15711123
      3.01666670	    -17.13025451	      2.51874233	     -5.15003307	      0.92159731	      0.92212334	      0.01703766	     35.16995935	     -6.82173383	      6.34318823	     41.88944559	      0.73110875	      8.08877901	    -15.08537739	     -7.49999987	     36.78750185	     -4.92242770	      0.48750518	     43.67241033	      0.76222735	      6.75552465	    -16.13658797	     -7.49999987	    -17.83428854	      1.01282786	      1.21198513	      5.19276003	    -20.83407349	     14.23379065	     75.20812555	     75.53224083	     -3.50954207	    -17.71324181	     11.30631319	     87.20208569	     77.25973256
      3.03333330	    -15.23821995	      1.88427200	     -4.76489210	      0.93263466	      0.95681921	      0.02009027	     28.89385823	     -7.15928231	      4.82493050	     33.81423723	      0.59016977	      2.19117350	    -13.39372282	     -7.49999987	     30.55588420	     -5.46589643	     -1.51392616	     35.34500656	      0.61688674	      1.35612617	    -15.61495173	     -7.49999987	    -16.20060900	      1.35993999	      1.22894367	     -0.24398210	    -22.46209981	     14.14259762	     81.44459734	     77.65683517	     -9.71686918	    -18.89346667	     10.79040874	     96.37395655	     79.79097675
      3.05000000	    -13.93233506	      1.36729285	     -4.66522589	      0.93775210	      0.99105535	      0.02320572	     23.01246119	     -7.37730949	      2.55188903	     24.63685026	      0.42999415	     -4.35390737	     -9.40990723	     -7.49999987	     24.68915842	     -6.22411339	     -4.59645459	     25.99489351	      0.45369648	     -4.73343158	    -12.95783565	     -7.49999987	    -14.82164572	      1.66616575	      1.33618223	     -5.14081978	    -23.21040573	     12.99871060	     86.99569493	     80.57581236	    -14.99563639	    -19.66551196	      8.72050879	    104.19874775	     83.58021022
      3.06666670	    -12.84008358	      0.93122784	     -4.30433963	      0.94457651	      1.02977563	      0.02113157	     18.29443762	     -7.51964610	     -0.07191931	     16.75597506	      0.29244693	    -11.50226121	     -4.59655821	     -7.49999987	     19.92951285	     -6.66559758	     -7.59801808	     17.69598323	      0.30885317	    -11.48639225	     -9.07444786	     -7.49999987	    -13.83685076	      2.03236142	      1.14249234	     -9.01096573	    -23.10473490	     11.76259671	     89.72412404	     83.82930246	    -18.83791825	    -19.73696274	      7.20526547	    108.65319571	     87.62147761
      3.08333330	    -11.98285318	      1.12855508	     -4.72034652	      0.95722519	      1.06248743	      0.01796762	     14.75294938	     -7.96812153	     -1.23511124	     10.55272685	      0.18417983	    -19.60736617	     -1.74096273	     -7.49999987	     15.85898483	     -6.26283238	     -9.56063864	     11.45425701	      0.19991450	    -18.52848918	     -7.38880315	     -7.49999987	    -12.70297732	      1.76642241	      1.25177340	    -12.02127543	    -23.08037195	     11.52851449	     90.94790681	     86.98505885	    -22.17682785	    -20.11708429	      6.70059620	    111.30039335	     91.39931409
      3.10000000	    -11.60977597	      1.02602049	     -4.44036781	      0.96138273	      1.08869133	      0.02151116	     12.23205087	     -8.17174813	     -3.98252205	      6.30459280	      0.11003590	    -23.89344829	      3.59129181	     -7.49999987	     13.52298545	     -6.38681385	    -11.50347454	      7.34158615	      0.12813485	    -22.73523786	     -2.76500509	     -7.49999987	    -11.49729842	      1.84016987	      1.20208171	    -14.99618303	    -21.78086937	      9.28272723	     91.86976697	     85.23780951	    -25.97873364	    -18.86411895	      4.44157540	    111.02643375	     89.36510582
      3.11666670	    -11.39304180	      1.00192199	     -4.24775722	      0.96109540	      1.11682144	      0.02092356	     10.93257810	     -8.28087849	     -4.31397246	      4.28673647	      0.07481767	    -25.33755117	      5.44290695	     -7.49999987	     12.63628655	     -6.38683645	    -12.40994480	      5.07157906	      0.08851575	    -25.68311328	     -0.94546053	     -7.49999987	    -10.71512305	      1.77079767	      1.49816266	    -17.07880272	    -21.32322271	      8.11147924	     92.14452107	     87.25659845	    -28.30862006	    -17.93281556	      3.39650186	    111.30024913	     91.81765143
